<?xml version='1.0' encoding='iso-8859-1'?>
<svg version="1.1" xmlns="http://www.w3.org/2000/svg" viewBox="0 0 44 44" xmlns:xlink="http://www.w3.org/1999/xlink" enable-background="new 0 0 44 44">
  <g>
    <g>
      <path d="m27,18h-10c-0.552,0-1,0.447-1,1v10c0,0.553 0.448,1 1,1h10c0.552,0 1-0.447 1-1v-10c0-0.553-0.448-1-1-1zm-6,10h-3v-2h3v2zm5,0h-3v-2h3v2zm0-4h-8v-4h8v4z"/>
    </g>
  </g>
  <g>
    <g>
      <path d="m35,26c0.552,0 1-0.447 1-1 0-0.553-0.448-1-1-1s-1,0.447-1,1c0,0.553 0.448,1 1,1zm-26,0c0.552,0 1-0.447 1-1 0-0.553-0.448-1-1-1s-1,0.447-1,1c0,0.553 0.448,1 1,1zm34-12h-5v-5c0-0.553-0.448-1-1-1h-30c-0.552,0-1,0.447-1,1v5h-5c-0.552,0-1,0.447-1,1v20c0,0.553 0.448,1 1,1h42c0.552,0 1-0.447 1-1v-20c0-0.553-0.448-1-1-1zm-35-4h28v4h-28v-4zm34,24h-40v-18h40v18zm-7-4c2.761,0 5-2.238 5-5s-2.239-5-5-5c-2.761,0-5,2.238-5,5s2.239,5 5,5zm0-8c1.657,0 3,1.343 3,3 0,1.657-1.343,3-3,3s-3-1.343-3-3c0-1.657 1.343-3 3-3zm-26,8c2.761,0 5-2.238 5-5s-2.239-5-5-5c-2.761,0-5,2.238-5,5s2.239,5 5,5zm0-8c1.657,0 3,1.343 3,3 0,1.657-1.343,3-3,3s-3-1.343-3-3c0-1.657 1.343-3 3-3z"/>
    </g>
  </g>
</svg>
