<?xml version='1.0' encoding='iso-8859-1'?>
<svg version="1.1" xmlns="http://www.w3.org/2000/svg" viewBox="0 0 44.004 44.004" xmlns:xlink="http://www.w3.org/1999/xlink" enable-background="new 0 0 44.004 44.004">
  <g>
    <g>
      <path d="m26.05,18.541c-1.315-0.238-2.24-0.024-3.073,0.521l-.06-3.972 2.059-1.845 .011,.014c1.733-1.458 3.276-3.249 3.711-5.633 0.43-2.359-0.043-4.086-1.148-5.893l.014-.01c-0.539-0.738-1.489-1.461-2.577-1.658-2.178-0.396-3.571,1.045-3.967,3.217l.021,10.788-4.151,2.44-.002-.002c-1.897,1.31-3.293,3.342-3.738,5.785-0.891,4.884 2.952,9.562 7.846,10.456l.035,7.254-.022,.003c0,0.633-0.363,1.19-0.824,1.557-0.096,0.066-0.186,0.144-0.29,0.191-0.037,0.021-0.072,0.043-0.11,0.061-0.738,0.285-1.607,0.137-2.203-0.454-0.804-0.799-0.835-2.124-0.031-2.923l-.009-.009c0.165-0.179 0.271-0.413 0.271-0.676 0-0.553-0.447-1-1-1-0.265,0-0.503,0.107-0.682,0.275l-.005-.005c-0.007,0.007-0.013,0.015-0.02,0.021-0.001,0.001-0.001,0.002-0.002,0.003-1.002,1.011-1.364,2.407-1.093,3.702 0.35,1.851 1.974,3.253 3.932,3.253 0.016,0 0.03-0.005 0.046-0.005 1.069,0.013 2.143-0.382 2.959-1.192l.012,.012c0.652-0.698 1.054-1.789 1.071-2.815l-.051-7.118c4.128-0.162 7.14-3.149 7.909-7.372 0.593-3.257-1.573-6.378-4.839-6.971zm-3.029-14.9c0.198-1.086 0.518-1.807 1.606-1.608 0.545,0.099 0.997,0.408 1.289,0.828l.005-.003c0.987,1.424 1.139,2.59 0.806,4.411-0.338,1.854-1.541,3.299-2.729,4.537l-.994,.913 .017-9.078zm-2.03,27.058c-3.601-0.854-6.543-4.373-5.873-8.048 0.347-1.9 1.377-3.523 2.853-4.541l-.001-.002 3.009-1.673 .05,4.141c-0.602,0.711-1.038,1.573-1.259,2.536-0.06,0.129-0.102,0.271-0.102,0.423 0,0.553 0.448,1 1,1 0.129,0 0.251-0.029 0.364-0.073l-.041,6.237zm7.925-5.544c-0.595,3.26-2.766,5.57-5.945,5.728l.014-9.433c0.606-0.777 1.454-1.171 2.707-0.943 2.176,0.395 3.621,2.476 3.224,4.648z"/>
    </g>
  </g>
</svg>
