<?xml version='1.0' encoding='iso-8859-1'?>
<svg version="1.1" xmlns="http://www.w3.org/2000/svg" viewBox="0 0 44 44" xmlns:xlink="http://www.w3.org/1999/xlink" enable-background="new 0 0 44 44">
  <g>
    <g>
      <path fill-rule="evenodd" d="m5.776,16.283c-0.406-0.41-1.065-0.41-1.472,0-0.001,0.001-0.001,0.002-0.002,0.003-0.185,0.182-0.302,0.434-0.302,0.714v4c0,0.553 0.447,1 1,1 0.553,0 1-0.447 1-1v-1.524l.207,.209c0.406,0.41 1.066,0.41 1.473,0 0.406-0.409 0.406-1.073 0-1.483l-1.904-1.919zm24.904,1.918l-1.903-1.918c-0.406-0.41-1.065-0.41-1.472,0-0.001,0.001-0.002,0.002-0.002,0.003-0.186,0.182-0.303,0.434-0.303,0.714v4c0,0.553 0.447,1 1,1 0.553,0 1-0.447 1-1v-1.524l.207,.209c0.406,0.41 1.066,0.41 1.473,0 0.406-0.41 0.406-1.074 0-1.484z"/>
    </g>
  </g>
  <g>
    <g>
      <path fill-rule="evenodd" d="M20.555,21.19l0.01-0.015l-19-13L1.555,8.19C1.394,8.079,1.21,8,1,8    C0.447,8,0,8.447,0,9v26c0,0.553,0.447,1,1,1c0.21,0,0.394-0.079,0.555-0.19l0.01,0.015l19-13l-0.01-0.015    C20.816,22.63,21,22.343,21,22C21,21.657,20.816,21.37,20.555,21.19z M2,33.104V10.896L18.229,22L2,33.104z M44,22    c0-0.343-0.184-0.63-0.445-0.81l0.01-0.015l-19-13l-0.01,0.015C24.394,8.079,24.21,8,24,8c-0.553,0-1,0.447-1,1v26    c0,0.553,0.447,1,1,1c0.21,0,0.394-0.079,0.555-0.19l0.01,0.015l19-13l-0.01-0.015C43.816,22.63,44,22.343,44,22z M25,33.104    V10.896L41.229,22L25,33.104z"/>
    </g>
  </g>
</svg>
