<?xml version='1.0' encoding='iso-8859-1'?>
<svg version="1.1" xmlns="http://www.w3.org/2000/svg" viewBox="0 0 44 44" xmlns:xlink="http://www.w3.org/1999/xlink" enable-background="new 0 0 44 44">
  <g>
    <g>
      <path d="m22,0c-3.866,0-7,3.134-7,7v10c0,3.866 3.134,7 7,7s7-3.134 7-7v-10c0-3.866-3.134-7-7-7zm5,17c0,2.762-2.238,5-5,5s-5-2.238-5-5v-10c0-2.762 2.238-5 5-5s5,2.238 5,5v10z"/>
    </g>
  </g>
  <g>
    <g>
      <path d="m34,38h-1v-1c0-1.657-1.344-3-3-3h-7v-6c5.523,0 10-4.477 10-10v-3c0-0.553-0.447-1-1-1-0.553,0-1,0.447-1,1v2c0,4.971-4.029,9-9,9s-9-4.029-9-9v-2c0-0.553-0.447-1-1-1-0.553,0-1,0.447-1,1v3c0,5.523 4.477,10 10,10v6h-7c-1.656,0-3,1.343-3,3v1h-1c-0.553,0-1,0.447-1,1v4c0,0.553 0.447,1 1,1h24c0.553,0 1-0.447 1-1v-4c0-0.553-0.447-1-1-1zm-21-1c0-0.553 0.447-1 1-1h16c0.553,0 1,0.447 1,1v1h-18v-1zm20,5h-22v-2h22v2z"/>
    </g>
  </g>
</svg>
