<?xml version='1.0' encoding='iso-8859-1'?>
<svg version="1.1" xmlns="http://www.w3.org/2000/svg" viewBox="0 0 44 44" xmlns:xlink="http://www.w3.org/1999/xlink" enable-background="new 0 0 44 44">
  <g>
    <g>
      <path fill-rule="evenodd" d="m14,4h-2c-0.553,0-1,0.447-1,1v5c0,0.553 0.447,1 1,1 0.553,0 1-0.447 1-1v-4h1c0.553,0 1-0.447 1-1 0-0.553-0.447-1-1-1zm18,0h-2c-0.553,0-1,0.447-1,1v5c0,0.553 0.447,1 1,1 0.553,0 1-0.447 1-1v-4h1c0.553,0 1-0.447 1-1 0-0.553-0.447-1-1-1z"/>
    </g>
  </g>
  <g>
    <g>
      <path fill-rule="evenodd" d="m18,0h-10c-0.553,0-1,0.447-1,1v42c0,0.553 0.447,1 1,1h10c0.553,0 1-0.447 1-1v-42c0-0.553-0.447-1-1-1zm-1,42h-8v-40h8v40zm19-42h-10c-0.553,0-1,0.447-1,1v42c0,0.553 0.447,1 1,1h10c0.553,0 1-0.447 1-1v-42c0-0.553-0.447-1-1-1zm-1,42h-8v-40h8v40z"/>
    </g>
  </g>
</svg>
