<?xml version='1.0' encoding='iso-8859-1'?>
<svg version="1.1" xmlns="http://www.w3.org/2000/svg" viewBox="0 0 44 44" xmlns:xlink="http://www.w3.org/1999/xlink" enable-background="new 0 0 44 44">
  <g>
    <g>
      <path d="m30,27h-16c-0.552,0-1,0.447-1,1v3h2v-2h2v2h2v-2h2v2h2v-2h2v2h2v-2h2v2h2v-3c0-0.553-0.448-1-1-1z"/>
    </g>
  </g>
  <g>
    <g>
      <path d="m20,17h-4v-1c0-0.553-0.448-1-1-1s-1,0.447-1,1v1h-2v-1c0-0.553-0.448-1-1-1s-1,0.447-1,1v1h-1c-0.552,0-1,0.447-1,1 0,0.553 0.448,1 1,1h1v1c0,0.553 0.448,1 1,1s1-0.447 1-1v-1h2v1c0,0.553 0.448,1 1,1s1-0.447 1-1v-1h4c0.552,0 1-0.447 1-1 0-0.553-0.448-1-1-1z"/>
    </g>
  </g>
  <g>
    <g>
      <path d="m9,27c-0.552,0-1,0.447-1,1 0,0.553 0.448,1 1,1s1-0.447 1-1c0-0.553-0.448-1-1-1zm34-20h-42c-0.552,0-1,0.447-1,1v28c0,0.553 0.448,1 1,1h42c0.552,0 1-0.447 1-1v-28c0-0.553-0.448-1-1-1zm-1,28h-40v-26h40v26zm-7-8c-0.552,0-1,0.447-1,1 0,0.553 0.448,1 1,1s1-0.447 1-1c0-0.553-0.448-1-1-1zm-30,6h34c0.552,0 1-0.447 1-1v-20c0-0.553-0.448-1-1-1h-34c-0.552,0-1,0.447-1,1v20c0,0.553 0.448,1 1,1zm1-20h32v10h-32v-10zm0,12h32v6h-32v-6z"/>
    </g>
  </g>
</svg>
