<?xml version='1.0' encoding='iso-8859-1'?>
<svg version="1.1" xmlns="http://www.w3.org/2000/svg" viewBox="0 0 44.022 44.022" xmlns:xlink="http://www.w3.org/1999/xlink" enable-background="new 0 0 44.022 44.022">
  <g>
    <g>
      <path d="m12.056,13.195l.01-.016-6-4-.01,.016c-0.159-0.107-0.34-0.184-0.545-0.184-0.553,0-1,0.447-1,1v10c0,0.553 0.447,1 1,1 0.553,0 1-0.447 1-1v-8.132l4.445,2.964 .01-.016c0.159,0.107 0.34,0.184 0.545,0.184 0.553,0 1-0.447 1-1 0-0.346-0.187-0.637-0.455-0.816z"/>
    </g>
  </g>
  <g>
    <g>
      <path fill-rule="evenodd" d="m42.511,.011h-6c-0.553,0-1,0.447-1,1v42c0,0.553 0.447,1 1,1h6c0.553,0 1-0.447 1-1v-42c0-0.552-0.447-1-1-1zm-1,42h-4v-40h4v40zm-39.278-41.719c-0.394-0.389-1.032-0.389-1.427-1.60982e-15-0.199,0.196-0.296,0.454-0.293,0.71 0,0.003-0.002,0.006-0.002,0.009v42c0,0.003 0.002,0.006 0.002,0.009-0.003,0.257 0.094,0.515 0.293,0.711 0.395,0.389 1.033,0.389 1.427,0l30.963-20.99c0.393-0.388 0.393-1.018 0-1.405l-30.963-21.044zm.278,40.881v-38.321l28.309,19.186-28.309,19.135z"/>
    </g>
  </g>
</svg>
