<?xml version='1.0' encoding='iso-8859-1'?>
<svg version="1.1" xmlns="http://www.w3.org/2000/svg" viewBox="0 0 44 44" xmlns:xlink="http://www.w3.org/1999/xlink" enable-background="new 0 0 44 44">
  <g>
    <g>
      <path d="m22,22c-4.971,0-9,4.029-9,9s4.029,9 9,9 9-4.029 9-9-4.029-9-9-9zm0,16c-3.866,0-7-3.134-7-7s3.134-7 7-7 7,3.134 7,7-3.134,7-7,7z"/>
    </g>
  </g>
  <g>
    <g>
      <path d="m22,5c-3.866,0-7,3.134-7,7s3.134,7 7,7 7-3.134 7-7-3.134-7-7-7zm0,12c-2.762,0-5-2.238-5-5s2.238-5 5-5 5,2.238 5,5-2.238,5-5,5z"/>
    </g>
  </g>
  <g>
    <g>
      <path d="m22,15c1.656,0 3-1.343 3-3 0-1.657-1.344-3-3-3-1.656,0-3,1.343-3,3 0,1.657 1.344,3 3,3zm0-4c0.553,0 1,0.447 1,1 0,0.553-0.447,1-1,1-0.553,0-1-0.447-1-1 0-0.553 0.447-1 1-1zm10,29c0.553,0 1-0.447 1-1 0-0.553-0.447-1-1-1-0.553,0-1,0.447-1,1 0,0.553 0.447,1 1,1zm0-34c0.553,0 1-0.447 1-1 0-0.553-0.447-1-1-1-0.553,0-1,0.447-1,1 0,0.553 0.447,1 1,1zm-20,34c0.553,0 1-0.447 1-1 0-0.553-0.447-1-1-1-0.553,0-1,0.447-1,1 0,0.553 0.447,1 1,1zm10-6c1.656,0 3-1.343 3-3 0-1.657-1.344-3-3-3-1.656,0-3,1.343-3,3 0,1.657 1.344,3 3,3zm0-4c0.553,0 1,0.447 1,1 0,0.553-0.447,1-1,1-0.553,0-1-0.447-1-1 0-0.553 0.447-1 1-1zm14-30h-28c-0.553,0-1,0.447-1,1v42c0,0.553 0.447,1 1,1h28c0.553,0 1-0.447 1-1v-42c0-0.553-0.447-1-1-1zm-1,42h-26v-40h26v40zm-23-36c0.553,0 1-0.447 1-1 0-0.553-0.447-1-1-1-0.553,0-1,0.447-1,1 0,0.553 0.447,1 1,1z"/>
    </g>
  </g>
</svg>
