<?xml version='1.0' encoding='iso-8859-1'?>
<svg version="1.1" xmlns="http://www.w3.org/2000/svg" viewBox="0 0 44 44" xmlns:xlink="http://www.w3.org/1999/xlink" enable-background="new 0 0 44 44">
  <g>
    <g>
      <path d="m24,0h-4c-0.552,0-1,0.447-1,1v20c0,0.553 0.448,1 1,1h4c0.552,0 1-0.447 1-1v-20c0-0.553-0.448-1-1-1zm-1,20h-2v-18h2v18z"/>
    </g>
  </g>
  <g>
    <g>
      <path d="M29.117,5.319L28.75,5.281c-0.552,0-1,0.447-1,1c0,0.469,0.329,0.844,0.764,0.952C35.232,9.845,40,16.358,40,24    c0,9.941-8.059,18-18,18S4,33.941,4,24C4,16.316,8.819,9.77,15.595,7.188l-0.002-0.007c0.382-0.141,0.657-0.5,0.657-0.931    c0-0.553-0.448-1-1-1l-0.367,0.069c-0.007,0.003-0.014,0.006-0.021,0.009c-0.001,0.001-0.001,0.001-0.002,0.001    C7.343,8.205,2,15.473,2,24c0,11.046,8.954,20,20,20s20-8.954,20-20C42,15.463,36.646,8.188,29.117,5.319z"/>
    </g>
  </g>
</svg>
