<?xml version='1.0' encoding='iso-8859-1'?>
<svg version="1.1" xmlns="http://www.w3.org/2000/svg" viewBox="0 0 44 44" xmlns:xlink="http://www.w3.org/1999/xlink" enable-background="new 0 0 44 44">
  <g>
    <g>
      <path d="m21.563,8c-6.153,0-11.34,4.244-12.99,10.051l.015,.005c-0.028,0.093-0.057,0.185-0.057,0.288 0,0.553 0.433,1 0.968,1 0.442,0 0.8-0.313 0.915-0.732l.015,.004c1.415-4.978 5.86-8.616 11.134-8.616 0.534,0 0.968-0.447 0.968-1s-0.433-1-0.968-1z"/>
    </g>
  </g>
  <g>
    <g>
      <path d="m22,4c-9.941,0-18,8.059-18,18 0,0.553 0.447,1 1,1 0.553,0 1-0.447 1-1 0-8.837 7.163-16 16-16 0.553,0 1-0.447 1-1s-0.447-1-1-1z"/>
    </g>
  </g>
  <g>
    <g>
      <path d="m22,21c-0.553,0-1,0.447-1,1s0.447,1 1,1c0.553,0 1-0.447 1-1s-0.447-1-1-1zm0-6c-3.866,0-7,3.134-7,7s3.134,7 7,7 7-3.134 7-7-3.134-7-7-7zm0,12c-2.762,0-5-2.238-5-5s2.238-5 5-5c2.762,0 5,2.238 5,5s-2.238,5-5,5zm0-27c-12.15,0-22,9.85-22,22s9.85,22 22,22 22-9.85 22-22-9.85-22-22-22zm0,42c-11.046,0-20-8.954-20-20s8.954-20 20-20 20,8.954 20,20-8.954,20-20,20z"/>
    </g>
  </g>
</svg>
